<svg width="20" height="20" viewBox="0 0 20 20" fill="none" xmlns="http://www.w3.org/2000/svg">
<path d="M3 10C8.27189 10.0001 12.5459 14.4772 12.5459 20H3V10ZM14.9316 10C16.6261 10 17.9998 11.4389 18 13.2139C18 14.9891 16.6262 16.4287 14.9316 16.4287C13.2372 16.4285 11.8633 14.989 11.8633 13.2139C11.8635 11.439 13.2374 10.0002 14.9316 10ZM18 0C18 5.52284 13.8028 9.99999 8.625 10H3V6.40039C3 4.16018 2.99946 3.03924 3.4082 2.18359C3.76775 1.43105 4.34229 0.819001 5.04785 0.435547C5.84998 -0.000141981 6.90019 0 9 0H18Z" fill="white" fill-opacity="0.8"/>
</svg>
